<?xml version="1.0" standalone="no"?>
<!DOCTYPE svg PUBLIC "-//W3C//DTD SVG 20010904//EN"
 "http://www.w3.org/TR/2001/REC-SVG-20010904/DTD/svg10.dtd">
<svg version="1.0" xmlns="http://www.w3.org/2000/svg"
 width="3072.000000pt" height="3072.000000pt" viewBox="0 0 3072.000000 3072.000000"
 preserveAspectRatio="xMidYMid meet">
<metadata>
Created by potrace 1.14, written by Peter Selinger 2001-2017
</metadata>
<g transform="translate(0.000000,3072.000000) scale(0.100000,-0.100000)"
fill="#000000" stroke="none">
<path d="M14898 29965 c-2 -2 -88 -6 -193 -10 -104 -3 -206 -7 -225 -10 -19
-2 -93 -6 -165 -10 -71 -3 -141 -8 -155 -10 -14 -2 -63 -6 -110 -10 -47 -3
-96 -8 -110 -10 -14 -2 -54 -7 -90 -10 -102 -9 -163 -16 -190 -20 -14 -2 -54
-7 -90 -10 -36 -4 -74 -9 -85 -11 -11 -2 -42 -6 -70 -9 -70 -8 -297 -39 -355
-50 -14 -2 -45 -7 -70 -10 -25 -3 -52 -8 -60 -10 -8 -2 -32 -6 -53 -9 -20 -3
-97 -17 -170 -30 -73 -14 -148 -28 -167 -31 -19 -3 -42 -8 -50 -10 -8 -2 -26
-6 -40 -9 -14 -2 -81 -16 -150 -30 -69 -14 -134 -28 -145 -30 -305 -60 -1027
-260 -1450 -401 -359 -120 -915 -329 -1102 -415 -24 -11 -45 -20 -48 -20 -4 0
-298 -131 -450 -200 -128 -58 -579 -282 -665 -330 -47 -26 -119 -64 -160 -85
-41 -22 -103 -56 -138 -77 -34 -21 -64 -38 -66 -38 -7 0 -472 -274 -567 -335
-8 -5 -37 -23 -64 -40 -66 -41 -518 -342 -580 -386 -263 -187 -463 -336 -632
-469 -43 -34 -93 -74 -112 -88 -40 -31 -394 -323 -401 -331 -3 -4 -39 -35 -80
-71 -41 -36 -80 -69 -86 -75 -6 -5 -49 -44 -95 -85 -315 -282 -716 -679 -1009
-999 -193 -210 -417 -470 -579 -671 -51 -63 -107 -133 -124 -154 -77 -95 -310
-406 -432 -576 -200 -280 -625 -931 -625 -957 0 -4 -6 -14 -14 -22 -15 -18
-210 -354 -301 -521 -139 -253 -308 -590 -430 -855 -135 -294 -141 -306 -170
-375 -14 -36 -32 -78 -40 -95 -7 -16 -34 -82 -59 -145 -26 -63 -51 -124 -56
-135 -5 -11 -39 -99 -75 -195 -37 -96 -70 -184 -75 -195 -33 -76 -181 -519
-255 -760 -58 -189 -169 -579 -180 -630 -2 -11 -18 -76 -35 -145 -17 -69 -33
-132 -35 -141 -2 -8 -10 -44 -18 -80 -32 -132 -66 -285 -71 -314 -3 -16 -17
-86 -31 -155 -14 -69 -37 -190 -50 -270 -14 -80 -27 -156 -30 -170 -2 -13 -7
-42 -10 -65 -3 -22 -10 -65 -15 -95 -5 -30 -12 -73 -15 -95 -2 -22 -6 -49 -9
-60 -2 -11 -7 -47 -10 -80 -4 -33 -9 -71 -11 -85 -2 -14 -7 -50 -10 -80 -4
-30 -9 -62 -10 -70 -3 -19 -14 -109 -20 -175 -3 -27 -9 -93 -15 -145 -8 -85
-15 -159 -25 -285 -12 -136 -21 -289 -30 -490 -4 -88 -9 -187 -10 -220 -4 -82
-4 -840 0 -945 4 -117 16 -363 20 -430 2 -30 6 -95 10 -145 3 -49 7 -110 10
-135 2 -25 7 -79 10 -120 7 -92 15 -174 30 -310 3 -25 8 -67 10 -95 6 -55 23
-193 30 -240 2 -16 7 -52 10 -80 3 -27 10 -72 15 -100 5 -27 12 -72 15 -100 3
-27 8 -57 10 -65 2 -8 6 -35 9 -60 4 -25 8 -56 11 -70 2 -14 13 -77 25 -140
11 -63 23 -128 26 -145 8 -46 72 -365 78 -390 2 -5 6 -28 10 -50 4 -22 12 -53
17 -70 4 -16 11 -43 13 -60 9 -54 115 -470 166 -657 74 -265 227 -763 260
-843 5 -11 27 -74 50 -140 69 -198 227 -608 280 -730 10 -22 34 -79 54 -128
20 -48 50 -116 66 -151 17 -35 30 -67 30 -69 0 -21 350 -742 443 -912 23 -44
56 -105 72 -135 56 -105 239 -426 308 -540 39 -63 75 -124 81 -135 32 -59 363
-566 474 -725 178 -255 554 -753 684 -905 9 -11 45 -54 79 -95 57 -69 115
-138 162 -194 10 -11 33 -37 50 -56 18 -20 63 -71 102 -115 38 -44 72 -82 75
-85 3 -3 55 -59 115 -125 174 -189 569 -590 716 -726 20 -19 83 -77 140 -129
56 -52 107 -99 113 -105 6 -5 65 -57 131 -115 66 -57 122 -107 125 -110 3 -3
30 -25 60 -50 30 -25 57 -47 60 -50 11 -12 232 -194 335 -275 586 -462 1199
-876 1844 -1244 305 -174 407 -229 706 -379 121 -60 256 -127 300 -147 44 -21
114 -53 155 -72 236 -111 596 -262 860 -362 74 -28 144 -56 155 -61 11 -5 40
-16 65 -24 25 -8 97 -33 160 -56 337 -120 1013 -330 1178 -365 9 -2 78 -19
153 -38 113 -30 454 -109 524 -123 11 -2 31 -6 45 -9 14 -3 34 -7 45 -9 11 -2
76 -16 145 -30 115 -23 504 -91 575 -101 16 -2 61 -9 98 -15 37 -6 89 -13 115
-15 26 -3 63 -8 82 -11 19 -3 50 -7 68 -9 18 -2 67 -9 110 -14 101 -14 177
-22 231 -26 24 -2 64 -6 90 -9 57 -7 144 -15 235 -21 38 -3 88 -7 110 -10 23
-2 91 -7 151 -11 61 -3 135 -7 165 -9 374 -25 1290 -24 1600 0 30 3 105 7 165
10 61 3 130 7 155 10 25 2 79 7 120 10 178 14 290 25 330 30 19 2 60 7 90 10
30 3 71 8 90 11 19 2 53 6 75 9 22 2 54 6 70 9 17 2 55 8 85 11 30 4 98 13
150 20 52 8 113 17 135 20 22 3 51 8 65 10 14 3 43 8 65 11 22 3 99 16 170 29
72 13 148 26 170 30 22 3 48 8 57 11 9 3 27 7 40 9 13 3 57 11 98 20 41 8 86
16 100 19 14 2 55 11 93 20 37 9 81 18 99 21 17 3 34 8 38 10 4 2 22 7 41 10
19 3 90 19 159 36 69 17 130 32 135 34 6 1 17 4 25 7 8 3 56 15 105 27 104 26
98 24 190 50 39 10 95 26 125 34 30 9 152 46 270 82 118 37 220 68 225 69 6 2
17 6 25 9 8 3 76 26 150 50 200 67 414 143 441 158 13 7 24 11 24 10 0 -3 7 0
155 56 115 44 408 163 465 188 17 7 86 38 155 68 229 100 357 160 655 308 210
104 258 130 455 236 579 312 1225 726 1790 1147 158 118 586 456 635 502 11
11 45 39 75 64 349 287 903 817 1280 1226 113 123 137 149 255 284 60 69 112
127 115 130 19 18 230 274 350 425 529 663 1032 1423 1427 2155 22 41 57 105
76 142 47 86 246 484 285 568 16 36 53 114 81 173 28 59 51 110 51 112 0 4 60
142 105 240 30 66 158 383 211 523 31 81 62 161 70 179 8 17 14 36 14 42 0 6
4 19 9 29 36 65 266 785 366 1142 33 118 169 676 189 776 3 10 9 40 15 67 6
26 14 64 17 85 3 20 9 53 14 72 5 19 23 112 40 205 39 217 36 203 55 320 8 55
20 125 25 155 5 30 12 75 15 100 3 25 8 56 10 70 3 14 7 51 10 83 4 32 8 66
10 76 3 19 8 53 25 206 15 134 20 175 24 230 3 28 7 77 11 110 3 33 7 89 10
125 3 36 7 90 10 120 2 30 7 105 10 165 4 61 8 130 10 155 22 257 22 1277 0
1537 -2 22 -6 97 -10 165 -4 67 -8 139 -10 158 -2 19 -6 73 -9 120 -7 91 -10
126 -30 320 -3 25 -8 72 -11 105 -4 33 -8 74 -10 90 -10 79 -16 133 -20 160
-2 17 -9 68 -15 115 -5 47 -12 96 -15 110 -4 22 -7 42 -21 140 -7 49 -47 288
-69 410 -7 40 -55 285 -61 315 -5 22 -23 107 -30 143 -3 13 -19 83 -36 155
-17 73 -34 148 -38 167 -10 44 -11 45 -54 215 -274 1079 -726 2253 -1234 3210
-81 151 -138 258 -159 295 -11 19 -50 89 -88 155 -155 274 -392 656 -590 950
-129 192 -168 248 -176 255 -3 3 -25 34 -50 70 -24 35 -49 71 -56 80 -6 8 -60
80 -119 160 -176 237 -507 652 -640 800 -17 19 -66 76 -109 125 -69 79 -125
140 -325 359 -192 209 -776 774 -996 963 -12 10 -50 44 -85 75 -89 78 -88 77
-264 223 -155 128 -481 386 -525 415 -13 8 -35 25 -49 36 -62 51 -341 250
-516 370 -184 125 -215 146 -358 236 -37 24 -85 54 -107 68 -436 280 -1112
649 -1620 884 -157 73 -502 225 -525 232 -5 2 -71 28 -145 59 -139 58 -246
100 -410 161 -52 19 -111 41 -130 49 -137 54 -511 177 -800 265 -485 146 -997
271 -1495 366 -22 4 -46 8 -53 10 -8 1 -46 8 -85 14 -40 6 -88 16 -107 20 -19
5 -55 11 -80 14 -25 3 -54 8 -65 10 -11 2 -45 7 -75 12 -30 4 -57 8 -60 9 -6
1 -93 15 -130 20 -14 2 -52 7 -85 10 -33 4 -69 9 -80 10 -11 2 -45 6 -75 9
-30 4 -66 9 -80 11 -14 3 -47 7 -75 10 -27 3 -70 7 -95 10 -25 2 -70 7 -100 9
-123 12 -177 17 -220 21 -80 9 -143 14 -245 20 -55 3 -129 8 -165 10 -159 13
-317 17 -792 20 -279 1 -508 1 -510 0z"/>
</g>
</svg>
